# xmcd CD database file
# Generated: Thu Aug 8 21:30:20 2002 by KSCD
# 
# Track frame offsets:
#       150
#       19632
#       38700
#       61110
#       73962
#       93670
#       111057
#       129092
#       150785
#       166137
#       187650
#
# Disc length: 2857 seconds
#
# Revision: 1
# Processed by: cddbd v1.4PL0 Copyright (c) Steve Scherf et al.
# Submitted via: Kscd 1.3.3
#
DISCID=780b270b
DTITLE=Herdman, Priscilla - Forever and Always
DYEAR=1900
DGENRE=
TTITLE0=Ramblin' Heart
TTITLE1=This Time of Year
TTITLE2=The First Time Ever I Saw Your Face
TTITLE3=And So It Goes
TTITLE4=When I Call Upon Your Love
TTITLE5=Music To Me
TTITLE6=The Water is Wide
TTITLE7=Ashokan Farewell
TTITLE8=Somewhere in Time
TTITLE9=I'll Love You Forever
TTITLE10=Follow That Road
EXTD=
EXTT0=
EXTT1=
EXTT2=
EXTT3=
EXTT4=
EXTT5=
EXTT6=
EXTT7=
EXTT8=
EXTT9=
EXTT10=
PLAYORDER=
